<?xml version="1.0" encoding="iso-8859-1"?>
<!-- Generator: Adobe Illustrator 18.0.0, SVG Export Plug-In . SVG Version: 6.00 Build 0)  -->
<!DOCTYPE svg PUBLIC "-//W3C//DTD SVG 1.1//EN" "http://www.w3.org/Graphics/SVG/1.1/DTD/svg11.dtd">
<svg version="1.1" id="Capa_1" xmlns="http://www.w3.org/2000/svg" xmlns:xlink="http://www.w3.org/1999/xlink" x="0px" y="0px"
	 viewBox="0 0 493.266 493.266" style="enable-background:new 0 0 493.266 493.266;" xml:space="preserve">
<g>
	<path d="M353.877,94.284c18.179,0,32.951,14.792,32.951,32.965v49.32h32.828v-49.32c0-36.273-29.515-65.785-65.779-65.785h-16.016
		c0.966,5.342,1.545,10.809,1.545,16.414s-0.579,11.073-1.545,16.406H353.877z"/>
	<path d="M106.432,127.249c0-18.173,14.777-32.965,32.957-32.965h15.995c-0.966-5.333-1.539-10.801-1.539-16.406
		s0.573-11.072,1.539-16.414h-15.995c-36.265,0-65.784,29.512-65.784,65.785v49.32h32.827V127.249z"/>
	<path d="M153.339,198.824c-31.799,0-125.345-0.034-125.345-0.034C12.544,198.79,0,212.401,0,229.126v232.449
		c0,16.736,12.544,30.355,27.994,30.355h124.047c15.437,0,27.995-13.619,27.995-30.355V229.126
		C180.036,213.564,167.385,198.824,153.339,198.824z M32.827,231.608h114.382v202.57H32.827V231.608z M90.051,477.477
		c-5.879,0-10.777-3.203-13.748-7.781c-1.688-2.603-2.941-5.534-2.941-8.865c0-9.195,7.487-16.656,16.689-16.656
		c9.155,0,16.624,7.461,16.624,16.656c0,3.331-1.224,6.263-2.907,8.865C100.796,474.274,95.898,477.477,90.051,477.477z"/>
	<path d="M464.719,198.768c-31.801,0.041-126.664,0.358-126.664,0.358c-13.94,1.718-24.83,14.438-24.83,30v232.449
		c0,16.736,12.544,30.355,27.98,30.355h124.053c15.431,0,28.009-13.619,28.009-30.355V229.126
		C493.266,212.401,480.149,198.747,464.719,198.768z M346.053,231.608h114.385v202.57H346.053V231.608z M403.246,477.477
		c-5.865,0-10.762-3.203-13.748-7.781c-1.689-2.603-2.907-5.534-2.907-8.865c0-9.195,7.452-16.656,16.655-16.656
		c9.17,0,16.652,7.461,16.652,16.656c0,3.331-1.252,6.263-2.935,8.865C413.992,474.274,409.089,477.477,403.246,477.477z"/>
	<path d="M246.622,1.334c-42.206,0-76.545,34.336-76.545,76.543s34.339,76.543,76.545,76.543c42.208,0,76.547-34.336,76.547-76.543
		S288.83,1.334,246.622,1.334z M246.622,131.229c-29.42,0-53.349-23.928-53.349-53.352c0-29.413,23.929-53.352,53.349-53.352
		c29.422,0,53.355,23.938,53.355,53.352C299.977,107.301,276.044,131.229,246.622,131.229z"/>
	<path d="M278.614,45.894c-5.442-5.438-14.258-5.438-19.69,0l-12.302,12.309l-12.301-12.309c-5.428-5.438-14.246-5.438-19.689,0
		c-5.428,5.427-5.428,14.252,0,19.683l12.315,12.301l-12.315,12.311c-5.428,5.428-5.428,14.246,0,19.673
		c2.73,2.724,6.294,4.08,9.83,4.08c3.565,0,7.145-1.356,9.859-4.08l12.301-12.308l12.302,12.308c2.715,2.724,6.299,4.08,9.846,4.08
		c3.55,0,7.116-1.356,9.845-4.08c5.432-5.427,5.432-14.245,0-19.673l-12.317-12.311l12.317-12.301
		C284.046,60.146,284.046,51.321,278.614,45.894z"/>
</g>
<g>
</g>
<g>
</g>
<g>
</g>
<g>
</g>
<g>
</g>
<g>
</g>
<g>
</g>
<g>
</g>
<g>
</g>
<g>
</g>
<g>
</g>
<g>
</g>
<g>
</g>
<g>
</g>
<g>
</g>
</svg>
