<svg xmlns="http://www.w3.org/2000/svg" viewBox="0 0 500 500"><g id="freepik--Floor--inject-16"><ellipse id="freepik--floor--inject-16" cx="256.49" cy="345.44" rx="233.01" ry="134.53" style="fill:#f5f5f5"></ellipse></g><g id="freepik--Shadows--inject-16"><ellipse id="freepik--Shadow--inject-16" cx="254.66" cy="263.58" rx="50.64" ry="29.24" style="fill:#e0e0e0"></ellipse><ellipse id="freepik--shadow--inject-16" cx="377.11" cy="402.78" rx="60.41" ry="36.72" style="fill:#e0e0e0"></ellipse><ellipse id="freepik--shadow--inject-16" cx="107.91" cy="376.39" rx="55.13" ry="31.83" style="fill:#e0e0e0"></ellipse></g><g id="freepik--papel-planes--inject-16"><g id="freepik--paper-planes--inject-16"><polygon points="364.28 154.51 348.2 137.86 339.2 138.55 364.28 154.51" style="fill:#92E3A9"></polygon><polygon points="364.28 154.51 351.13 136.94 355.78 133.6 364.28 154.51" style="fill:#92E3A9"></polygon><polygon points="351.13 136.94 350.38 140.12 364.28 154.51 351.13 136.94" style="fill:#92E3A9"></polygon><polygon points="351.13 136.94 350.38 140.12 364.28 154.51 351.13 136.94" style="opacity:0.30000000000000004"></polygon><polygon points="135.03 181.32 154.31 163.5 164.44 164.86 135.03 181.32" style="fill:#92E3A9"></polygon><polygon points="135.03 181.32 151.04 162.28 146 158.2 135.03 181.32" style="fill:#92E3A9"></polygon><polygon points="151.04 162.28 151.69 165.92 135.03 181.32 151.04 162.28" style="fill:#92E3A9"></polygon><polygon points="151.04 162.28 151.69 165.92 135.03 181.32 151.04 162.28" style="opacity:0.30000000000000004"></polygon><polygon points="317.47 243.13 338.03 229.97 347.08 232.88 317.47 243.13" style="fill:#92E3A9"></polygon><polygon points="317.47 243.13 335.24 228.32 331.29 223.76 317.47 243.13" style="fill:#92E3A9"></polygon><polygon points="335.24 228.32 335.24 231.76 317.47 243.13 335.24 228.32" style="fill:#92E3A9"></polygon><polygon points="335.24 228.32 335.24 231.76 317.47 243.13 335.24 228.32" style="opacity:0.30000000000000004"></polygon><polygon points="185.85 296.73 161.97 281.44 151.45 284.81 185.85 296.73" style="fill:#92E3A9"></polygon><polygon points="185.85 296.73 165.21 279.52 169.8 274.22 185.85 296.73" style="fill:#92E3A9"></polygon><polygon points="165.21 279.52 165.21 283.51 185.85 296.73 165.21 279.52" style="fill:#92E3A9"></polygon><polygon points="165.21 279.52 165.21 283.51 185.85 296.73 165.21 279.52" style="opacity:0.30000000000000004"></polygon><path d="M131.49,239.08a.47.47,0,0,1-.45-.37l-.27-1.37a.46.46,0,0,1,.91-.17c.09.45.17.9.27,1.35a.47.47,0,0,1-.36.55Z" style="fill:#e0e0e0"></path><path d="M155.89,276.29a.5.5,0,0,1-.26-.08q-1.19-.81-2.34-1.68a.46.46,0,0,1-.08-.65.47.47,0,0,1,.65-.09c.74.57,1.51,1.13,2.29,1.65a.47.47,0,0,1-.26.85Zm-4.53-3.45a.48.48,0,0,1-.3-.11c-.72-.61-1.44-1.26-2.14-1.92a.47.47,0,1,1,.64-.68c.69.66,1.4,1.29,2.1,1.89a.46.46,0,0,1,.05.65A.46.46,0,0,1,151.36,272.84Zm-4.14-3.91a.44.44,0,0,1-.33-.15c-.65-.67-1.3-1.39-1.94-2.12A.47.47,0,0,1,145,266a.45.45,0,0,1,.65.05c.63.71,1.27,1.42,1.91,2.08a.47.47,0,0,1,0,.66A.48.48,0,0,1,147.22,268.93Zm-3.73-4.3a.46.46,0,0,1-.37-.18c-.58-.74-1.16-1.51-1.72-2.29a.45.45,0,0,1,.1-.64.46.46,0,0,1,.65.1c.55.77,1.12,1.53,1.7,2.26a.46.46,0,0,1-.08.65A.42.42,0,0,1,143.49,264.63ZM140.16,260a.44.44,0,0,1-.38-.21c-.52-.79-1-1.61-1.51-2.44a.46.46,0,0,1,.16-.63.46.46,0,0,1,.64.17c.48.81,1,1.61,1.48,2.4a.47.47,0,0,1-.13.64A.48.48,0,0,1,140.16,260Zm-2.88-4.9a.46.46,0,0,1-.41-.25c-.44-.85-.88-1.71-1.28-2.57a.45.45,0,0,1,.22-.61.47.47,0,0,1,.62.22c.4.84.82,1.69,1.26,2.53a.46.46,0,0,1-.19.62A.46.46,0,0,1,137.28,255.1Zm-2.42-5.16a.46.46,0,0,1-.43-.28c-.36-.87-.71-1.77-1-2.68a.46.46,0,0,1,.28-.59.47.47,0,0,1,.59.28c.32.89.67,1.78,1,2.63a.47.47,0,0,1-.24.61A.57.57,0,0,1,134.86,249.94Zm-1.94-5.35a.46.46,0,0,1-.44-.33c-.28-.91-.55-1.84-.79-2.75a.48.48,0,0,1,.34-.57.46.46,0,0,1,.56.33c.23.91.49,1.82.77,2.72a.46.46,0,0,1-.3.58Z" style="fill:#e0e0e0"></path><path d="M159.51,278.49a.43.43,0,0,1-.22-.06c-.41-.22-.82-.45-1.22-.69a.45.45,0,0,1-.17-.63.46.46,0,0,1,.63-.17c.4.24.8.46,1.2.67a.47.47,0,0,1-.22.88Z" style="fill:#e0e0e0"></path><path d="M199.6,144.76a.46.46,0,0,1,0-.92c.47,0,.93-.07,1.4-.09a.47.47,0,0,1,.48.44.45.45,0,0,1-.43.48l-1.38.09Z" style="fill:#e0e0e0"></path><path d="M159.33,158.82a.47.47,0,0,1-.38-.19.47.47,0,0,1,.11-.65c.74-.52,1.49-1,2.25-1.52a.47.47,0,0,1,.64.13.46.46,0,0,1-.14.64c-.75.49-1.49,1-2.22,1.51A.5.5,0,0,1,159.33,158.82Zm4.52-2.94a.46.46,0,0,1-.24-.86c.78-.47,1.56-.92,2.35-1.36a.47.47,0,0,1,.63.18.45.45,0,0,1-.18.63c-.78.44-1.56.88-2.32,1.34A.44.44,0,0,1,163.85,155.88Zm4.72-2.61a.45.45,0,0,1-.41-.26.47.47,0,0,1,.2-.62c.81-.41,1.62-.8,2.45-1.18a.46.46,0,0,1,.61.22.47.47,0,0,1-.22.62c-.81.37-1.62.76-2.42,1.17A.5.5,0,0,1,168.57,153.27Zm4.9-2.27a.48.48,0,0,1-.43-.29.46.46,0,0,1,.25-.6q1.25-.54,2.52-1a.46.46,0,0,1,.59.27.44.44,0,0,1-.26.59c-.84.33-1.67.66-2.49,1A.58.58,0,0,1,173.47,151Zm5-1.94a.47.47,0,0,1-.44-.31.46.46,0,0,1,.29-.59q1.27-.45,2.58-.84a.46.46,0,0,1,.58.3.47.47,0,0,1-.31.58c-.86.27-1.71.54-2.55.84Zm5.15-1.59a.46.46,0,0,1-.44-.34.46.46,0,0,1,.32-.57c.87-.24,1.75-.46,2.63-.67a.47.47,0,0,1,.56.34.46.46,0,0,1-.34.56c-.87.21-1.74.43-2.6.66Zm5.25-1.25a.47.47,0,0,1-.45-.37.46.46,0,0,1,.36-.54c.89-.18,1.78-.35,2.67-.5a.47.47,0,0,1,.53.38.45.45,0,0,1-.37.53c-.89.15-1.77.32-2.64.49Zm5.33-.9a.46.46,0,0,1-.46-.4.46.46,0,0,1,.39-.52q1.35-.18,2.7-.33a.47.47,0,0,1,.09.93c-.89.09-1.78.19-2.66.32Z" style="fill:#e0e0e0"></path><path d="M156,161.27a.48.48,0,0,1-.36-.17.45.45,0,0,1,.08-.65l1.1-.86a.46.46,0,0,1,.56.74l-1.09.84A.46.46,0,0,1,156,161.27Z" style="fill:#e0e0e0"></path><path d="M340.82,225.6a.47.47,0,0,1-.37-.19.46.46,0,0,1,.1-.65l.66-.49a.46.46,0,1,1,.56.74l-.67.5A.47.47,0,0,1,340.82,225.6Zm2.87-2.19a.45.45,0,0,1-.36-.18.47.47,0,0,1,.07-.65c.72-.57,1.44-1.15,2.14-1.75a.46.46,0,1,1,.6.71q-1.06.9-2.16,1.77A.51.51,0,0,1,343.69,223.41Zm4.25-3.59a.48.48,0,0,1-.35-.16.46.46,0,0,1,0-.65c.68-.62,1.35-1.24,2-1.88a.46.46,0,1,1,.64.66c-.67.65-1.35,1.29-2,1.91A.47.47,0,0,1,347.94,219.82Zm4-3.86a.45.45,0,0,1-.32-.13.46.46,0,0,1,0-.65c.64-.66,1.28-1.34,1.9-2a.46.46,0,0,1,.68.62c-.63.69-1.27,1.37-1.91,2A.49.49,0,0,1,351.94,216Zm3.74-4.12a.41.41,0,0,1-.3-.11.46.46,0,0,1-.06-.65c.6-.7,1.18-1.42,1.74-2.14a.46.46,0,0,1,.73.57c-.57.73-1.16,1.46-1.76,2.17A.44.44,0,0,1,355.68,211.84Zm3.41-4.38a.48.48,0,0,1-.27-.09.46.46,0,0,1-.1-.64q.81-1.12,1.56-2.28a.48.48,0,0,1,.65-.13.47.47,0,0,1,.13.64q-.78,1.17-1.59,2.31A.47.47,0,0,1,359.09,207.46Zm3.06-4.64a.44.44,0,0,1-.24-.07.46.46,0,0,1-.16-.63c.47-.79.93-1.59,1.37-2.4a.46.46,0,1,1,.81.44q-.66,1.23-1.38,2.43A.46.46,0,0,1,362.15,202.82Zm2.64-4.89a.47.47,0,0,1-.42-.66c.4-.83.79-1.68,1.14-2.52a.47.47,0,0,1,.61-.24.46.46,0,0,1,.25.61c-.37.85-.76,1.71-1.16,2.55A.48.48,0,0,1,364.79,197.93Zm2.17-5.11-.16,0a.47.47,0,0,1-.27-.6c.32-.87.62-1.74.89-2.61a.46.46,0,1,1,.88.28c-.27.88-.58,1.77-.9,2.65A.47.47,0,0,1,367,192.82Zm1.66-5.31h-.12a.48.48,0,0,1-.33-.57c.23-.89.43-1.79.61-2.68a.46.46,0,0,1,.91.18c-.18.91-.39,1.82-.62,2.73A.48.48,0,0,1,368.62,187.51Zm1.09-5.44h-.06a.45.45,0,0,1-.39-.52c.13-.91.24-1.83.32-2.73a.49.49,0,0,1,.51-.42.47.47,0,0,1,.42.5c-.09.92-.2,1.86-.34,2.78A.46.46,0,0,1,369.71,182.07Zm.52-5.53h0a.46.46,0,0,1-.44-.48c0-.71,0-1.42,0-2.14v-.61a.45.45,0,0,1,.45-.47h0a.47.47,0,0,1,.46.46v.61c0,.74,0,1.47-.05,2.19A.45.45,0,0,1,370.23,176.54Zm-.06-5.55a.47.47,0,0,1-.47-.43c-.05-.91-.13-1.84-.24-2.75a.48.48,0,0,1,.41-.51.46.46,0,0,1,.51.41c.11.92.19,1.86.25,2.79a.47.47,0,0,1-.43.49Zm-.62-5.52a.46.46,0,0,1-.46-.39c-.14-.89-.32-1.8-.51-2.71a.47.47,0,0,1,.36-.55.46.46,0,0,1,.55.36c.19.92.37,1.85.51,2.75a.46.46,0,0,1-.38.53Z" style="fill:#e0e0e0"></path><path d="M342.21,132.17a.45.45,0,0,1-.25-.07c-.78-.49-1.57-1-2.36-1.42a.46.46,0,0,1-.18-.63.47.47,0,0,1,.64-.17c.8.46,1.6.94,2.39,1.44a.47.47,0,0,1,.15.64A.46.46,0,0,1,342.21,132.17Zm-4.82-2.76a.59.59,0,0,1-.22,0c-.81-.43-1.64-.84-2.47-1.23a.46.46,0,0,1-.22-.61.48.48,0,0,1,.62-.23c.84.4,1.67.82,2.5,1.25a.46.46,0,0,1-.21.87Zm-5-2.37a.57.57,0,0,1-.18,0c-.85-.36-1.7-.71-2.56-1a.47.47,0,1,1,.33-.87c.87.33,1.74.68,2.59,1a.46.46,0,0,1-.18.89Zm-5.19-2-.15,0c-.87-.3-1.75-.57-2.63-.83a.46.46,0,0,1-.31-.58.45.45,0,0,1,.57-.31c.9.26,1.78.54,2.67.84a.47.47,0,0,1,.29.59A.47.47,0,0,1,327.17,125.07Zm-5.33-1.57-.11,0c-.89-.23-1.79-.44-2.69-.63a.47.47,0,0,1-.35-.56.46.46,0,0,1,.55-.35c.91.2,1.81.41,2.72.64a.48.48,0,0,1,.33.57A.46.46,0,0,1,321.84,123.5Zm-5.42-1.19h-.09c-.9-.17-1.81-.31-2.72-.44a.46.46,0,1,1,.13-.92q1.38.19,2.76.45a.45.45,0,0,1,.37.53A.46.46,0,0,1,316.42,122.31Zm-5.5-.78h-.05c-.92-.1-1.84-.18-2.75-.25a.46.46,0,0,1-.43-.49.44.44,0,0,1,.49-.43q1.4.09,2.79.24a.47.47,0,0,1-.05.93Z" style="fill:#e0e0e0"></path></g></g><g id="freepik--speech-bubbles--inject-16"><g id="freepik--speach-bubble--inject-16"><path d="M384,142.08l7.86-4.54a.74.74,0,0,0,.37-.33l1.44-2.52L389,132l.14.41Z" style="fill:#92E3A9"></path><g style="opacity:0.1"><path d="M384,142.08l7.86-4.54a.74.74,0,0,0,.37-.33l1.44-2.52L389,132l.14.41Z"></path></g><path d="M389.67,132.38l-5.44,9.42a.81.81,0,0,1-1.47-.14L377,125.07Z" style="fill:#92E3A9"></path><path d="M333.82,65a8.41,8.41,0,0,1,3.79-6.58h0a8.41,8.41,0,0,1,7.6,0l61.52,35.48a8.41,8.41,0,0,1,3.8,6.58v31.16a8.4,8.4,0,0,1-3.8,6.58h0a8.41,8.41,0,0,1-7.6,0l-61.87-35.74c-3.41-1.95-3.44-3.9-3.44-6.32Z" style="fill:#92E3A9"></path><path d="M390.08,110.76l-43.94-25.5c-1.27-.73-2.3-.39-2.3.75a4.6,4.6,0,0,0,2.3,3.41l43.94,25.49c1.27.74,2.3.4,2.3-.74A4.6,4.6,0,0,0,390.08,110.76Z" style="fill:#455a64"></path><path d="M376.77,111.93,346.14,94.17c-1.27-.73-2.3-.39-2.3.75a4.6,4.6,0,0,0,2.3,3.41l30.63,17.75c1.27.74,2.3.4,2.3-.74A4.6,4.6,0,0,0,376.77,111.93Z" style="fill:#455a64"></path><path d="M390.08,101.77,346.14,76.28c-1.27-.74-2.3-.4-2.3.75a4.62,4.62,0,0,0,2.3,3.41l43.94,25.49c1.27.73,2.3.4,2.3-.75A4.62,4.62,0,0,0,390.08,101.77Z" style="fill:#455a64"></path><path d="M410.53,131.63a8.4,8.4,0,0,1-3.8,6.58h0a8.45,8.45,0,0,1-7,.32c1.79.68,3.15-.34,3.15-2.51V104.85a7.72,7.72,0,0,0-1.11-3.74l7.6-4.38a7.83,7.83,0,0,1,1.11,3.74Z" style="opacity:0.1"></path><path d="M333.94,63.9c.44-1.61,1.91-2.12,3.67-1.11l61.53,35.49a7.53,7.53,0,0,1,2.67,2.83l7.59-4.37a7.64,7.64,0,0,0-2.67-2.84L345.22,58.41a8.49,8.49,0,0,0-7.61,0h0A8.37,8.37,0,0,0,333.94,63.9Z" style="fill:#fff;opacity:0.30000000000000004"></path></g><g id="freepik--speach-bubble--inject-16"><path d="M100.26,118.24l-7.52-4.34a.71.71,0,0,1-.35-.31L91,111.17l4.46-2.57-.14.39Z" style="fill:#92E3A9"></path><g style="opacity:0.55"><path d="M100.26,118.24l-7.52-4.34a.71.71,0,0,1-.35-.31L91,111.17l4.46-2.57-.14.39Z" style="fill:#fff"></path></g><path d="M94.79,109l5.2,9a.77.77,0,0,0,1.4-.13l5.5-15.87Z" style="fill:#92E3A9"></path><path d="M94.79,109l5.2,9a.77.77,0,0,0,1.4-.13l5.5-15.87Z" style="fill:#fff;opacity:0.7000000000000001"></path><path d="M114.56,63.66a8,8,0,0,0-3.63-6.3h0a8,8,0,0,0-7.26,0L44.83,91.31a8,8,0,0,0-3.64,6.29v29.8a8,8,0,0,0,3.64,6.29h0a8,8,0,0,0,7.26,0L111.27,99.5c3.26-1.86,3.29-3.73,3.29-6Z" style="fill:#92E3A9"></path><path d="M114.57,63.66V93.45c0,2.32,0,4.19-3.3,6L52.09,133.69a5.92,5.92,0,0,1-.62.3l-.08,0-.1,0-.14.05.06,0c-1.58.45-2.75-.53-2.75-2.49v-29.8a7.5,7.5,0,0,1,1.06-3.58h0a7.17,7.17,0,0,1,2.56-2.72l58.85-33.94c1.68-1,3.08-.47,3.51,1.06a7.86,7.86,0,0,0-.55-1.75A6.71,6.71,0,0,1,114.57,63.66Z" style="fill:#fff;opacity:0.7000000000000001"></path><path d="M41.2,127.4a8,8,0,0,0,3.63,6.29h0a8.12,8.12,0,0,0,6.64.31c-1.71.65-3-.33-3-2.4v-29.8a7.5,7.5,0,0,1,1.06-3.58L42.26,94A7.39,7.39,0,0,0,41.2,97.6Z" style="fill:#fff;opacity:0.55"></path><path d="M114.44,62.62c-.42-1.54-1.83-2-3.5-1.06L52.09,95.5a7.29,7.29,0,0,0-2.56,2.71L42.27,94a7.32,7.32,0,0,1,2.56-2.72l58.83-33.94a8.09,8.09,0,0,1,7.27,0h0A8,8,0,0,1,114.44,62.62Z" style="fill:#fff;opacity:0.85"></path><path d="M58.22,108.9l42-24.39c1.22-.7,2.2-.38,2.2.72a4.39,4.39,0,0,1-2.2,3.26l-42,24.38c-1.21.7-2.2.38-2.2-.71A4.42,4.42,0,0,1,58.22,108.9Z" style="fill:#455a64"></path><path d="M58.22,117.52l29.3-17c1.21-.7,2.2-.38,2.2.72a4.45,4.45,0,0,1-2.2,3.26l-29.3,17c-1.21.71-2.2.39-2.2-.71A4.42,4.42,0,0,1,58.22,117.52Z" style="fill:#455a64"></path><path d="M58.22,100.3l42-24.38c1.22-.7,2.2-.38,2.2.72a4.41,4.41,0,0,1-2.2,3.26l-42,24.38c-1.21.7-2.2.38-2.2-.72A4.42,4.42,0,0,1,58.22,100.3Z" style="fill:#455a64"></path></g><g id="freepik--speach-bubble--inject-16"><path d="M223.28,50a1.06,1.06,0,0,0-.5-.13h-9.11L209.91,52v13l3.76-2.17,3.25-3.76v10l3.76-2.17,9.86-11.39a1,1,0,0,0-.25-1.51Z" style="fill:#455a64"></path><path d="M216.92,69.1l3.76-2.17,9.86-11.39a1,1,0,0,0-.75-1.64h-9.11l-3.76,2.17Z" style="fill:#37474f"></path><path d="M220.68,46.24a7.42,7.42,0,0,0-3.35-5.81h0a7.39,7.39,0,0,0-6.7,0L156.4,71.72a7.41,7.41,0,0,0-3.35,5.8V105a7.4,7.4,0,0,0,3.35,5.8h0a7.46,7.46,0,0,0,6.7,0l54.55-31.51c3-1.72,3-3.44,3-5.58Z" style="fill:#37474f"></path><path d="M153.05,105a7.4,7.4,0,0,0,3.35,5.8h0a7.51,7.51,0,0,0,6.13.28c-1.58.59-2.78-.31-2.78-2.22V81.39a6.79,6.79,0,0,1,1-3.3L154,74.22a6.93,6.93,0,0,0-1,3.3Z" style="fill:#263238"></path><path d="M220.57,45.28c-.39-1.42-1.68-1.87-3.23-1L163.1,75.59a6.56,6.56,0,0,0-2.36,2.5L154,74.23a6.79,6.79,0,0,1,2.36-2.5l54.23-31.29a7.48,7.48,0,0,1,6.71,0h0A7.36,7.36,0,0,1,220.57,45.28Z" style="fill:#455a64"></path><path d="M170.68,87l38.75-22.47c1.12-.65,2-.36,2,.66a4.07,4.07,0,0,1-2,3L170.68,90.69c-1.12.64-2,.35-2-.66A4.07,4.07,0,0,1,170.68,87Z" style="fill:#92E3A9"></path><path d="M182.42,88.16l27-15.65c1.12-.65,2-.35,2,.66a4.05,4.05,0,0,1-2,3l-27,15.65c-1.12.65-2,.36-2-.66A4.07,4.07,0,0,1,182.42,88.16Z" style="fill:#92E3A9"></path><path d="M170.68,79.1l38.75-22.48c1.12-.64,2-.35,2,.66a4.07,4.07,0,0,1-2,3L170.68,82.76c-1.12.65-2,.36-2-.66A4.07,4.07,0,0,1,170.68,79.1Z" style="fill:#92E3A9"></path></g></g><g id="freepik--character-3--inject-16"><g id="freepik--Character--inject-16"><g id="freepik--character--inject-16"><path d="M398.09,197.74c5.15-1.15,11,1,14.89,9.26,3.76,7.88,14.64,31.07,14.89,36.63.26,5.77-23.23,23.74-22.57,23.43.2-.1-5.25-11.11-5.25-11.11L412,241.1l-6.76-13.31Z" style="fill:#92E3A9"></path></g><g id="freepik--character--inject-16" style="opacity:0.35000000000000003"><path d="M398.09,197.74c5.15-1.15,11,1,14.89,9.26,3.76,7.88,14.64,31.07,14.89,36.63.26,5.77-23.23,23.74-22.57,23.43.2-.1-5.25-11.11-5.25-11.11L412,241.1l-6.76-13.31Z"></path></g><path d="M407.08,384.73c.68.26,1.07,1.55,1.38,4.7.18,2,.85,4.54-2.13,6.12a7.49,7.49,0,0,1-7-.07c-2.58-1.6-3.89-4.56-6.91-6.93-2.66-2.08-6-3.62-8.14-7.41s-1.8-6.31,2.6-6.31c7.08,0,9.2,3.9,12.84,4C401.71,378.85,406.39,384.48,407.08,384.73Z" style="fill:#263238"></path><path d="M407.07,383.18v3.18c0,1.55-6.61,3.87-8.46.32-.14-.31-.86-4.67-.86-4.67Z" style="fill:#ffa8a7"></path><path d="M376.41,403.25s1.26,0,1.75,5.13c.19,2,.66,6,0,7.42s-4.28,2.09-8.34,2.45c-3,.27-5.76,1.74-8.56,3.32a18.71,18.71,0,0,1-8.68,2.4c-3.84,0-7.09-.39-9.82-2.55-1.45-1.15-3.3-3.57-1.95-5.4a4,4,0,0,1,2.05-1.08c1.71-.64,3.43-1.22,5.17-1.77a52.34,52.34,0,0,0,7.59-2.91c3.58-1.77,7.57-3.74,10.28-6.76Z" style="fill:#263238"></path><path d="M376.39,400.6s0,2.36,0,3.71-1.56,3.36-5.69,3.24c-2.89-.09-4.92-.86-4.82-3.25v-3.43Z" style="fill:#ffa8a7"></path><path d="M408.92,341a86.52,86.52,0,0,0-3.84-16.54s1.06-14.3,1.54-27.86a360.57,360.57,0,0,0-1.16-41.64s-46.06-4.36-46.82,12.56.34,60,.94,67.42,1.19,14.39,2.77,28.22c1.35,11.91,3.54,37.76,3.54,37.76a11.13,11.13,0,0,0,10.5-.27s3.47-34.71,3.87-43.28c.52-11.12-2.07-17.25-2.07-17.25s1-7,2.69-21.38c1.21-10.15,2.82-21.72,2.82-21.72s1.58,14.32,2.53,22.3c.89,7.4,2.39,13.25,4.61,27.05,1.93,12,7.19,37.3,7.19,37.3,5.41,2.89,9-.44,9-.44S410.43,351.34,408.92,341Z" style="fill:#37474f"></path><path d="M383.7,297l2.18-14.14s9-2.86,13.52-8.19c0,0-2.43,6.21-10.78,9.55l-3.35,11.91-.57,9.82Z"></path><polygon points="376.14 193.62 378.29 208.73 391.89 208.26 390.58 190.6 376.14 193.62" style="fill:#ffa8a7"></polygon><path d="M366.38,175s-3.65,5.35-3.25,5.89,3,1.05,3,1.05Z" style="fill:#f28f8f"></path><path d="M367.57,178.45a4.44,4.44,0,1,1,4.52-4.37A4.45,4.45,0,0,1,367.57,178.45Zm.13-7.89a3.45,3.45,0,1,0,3.4,3.5A3.45,3.45,0,0,0,367.7,170.56Z" style="fill:#263238"></path><path d="M376.51,160.16c-7.24,1.41-9.37,4.54-10.23,16-.9,11.95.26,15.73,1.81,17.37,1.05,1.1,6.94,1.39,9.93.62,3.74-1,12.2-3.82,16.24-9.77,4.75-7,6.12-16.59,1.21-20.61C388.58,158.11,379.45,159.59,376.51,160.16Z" style="fill:#ffa8a7"></path><path d="M376.25,194.44c-3.11.35-7.29,0-8.16-.92a21.42,21.42,0,0,0,7.74-1.52Z" style="fill:#f28f8f"></path><path d="M363.68,163a4.37,4.37,0,0,0,1,2.87,5.06,5.06,0,0,0,4.91,1.45,3.34,3.34,0,0,0,3.81,4.43c-.35.08.57,2.75.66,3a3.69,3.69,0,0,0,1.9,2.31s1.27-4.61,5.16-4,4.37,5.66,1.85,8.66-4.81,1.8-4.81,1.8,0,6.62,2.88,10.41c0,0,3.32,1.14,9.48-.08,3.78-.74,9.19-5.37,11.51-10.32,4.91-10.49,5.39-20-1.31-22.94-.26-.12-.36-1.42-.44-1.7a7.77,7.77,0,0,0-.87-2.11,8.82,8.82,0,0,0-3.74-3.26,19.22,19.22,0,0,0-7.13-1.52,45.37,45.37,0,0,1-7.28-.74c-2.15-.5-4.17-1.42-6.27-2.1a12.37,12.37,0,0,0-6.5-.65,5.88,5.88,0,0,0-4.58,4.25c-.47,2.43.94,4.45,2.41,6.23a4.27,4.27,0,0,0-2.68,4Z" style="fill:#263238"></path><path d="M399.8,163l4.35-2.48A2.5,2.5,0,1,0,399.8,163Z" style="fill:#263238"></path><path d="M375.93,179.64l.21-5a2.51,2.51,0,1,0-.21,5Z" style="fill:#263238"></path><polygon points="363.63 173.02 377.02 174.97 376.46 175.9 363.62 174.03 363.63 173.02" style="fill:#263238"></polygon><path d="M406.9,206.11c-1.59-6.2-3.83-8.23-9.23-8.37a67.94,67.94,0,0,0-8.3,1.06c-.57,2.62-7.34,4.4-14.2,3-2,.59-7.43,2.06-9.13,2.67-4.85,1.76-7.2,6.8-7.52,22.8,0,0-.93,37.92,0,44.47,12.23,4.77,24.93,4.56,31.94,3,14.59-3.27,16.32-9.34,16.32-9.34s-.76-15.22-1.26-26.8c.73-7.37,1.83-12.91,2.23-18.79A49.44,49.44,0,0,0,406.9,206.11Z" style="fill:#92E3A9"></path><g style="opacity:0.2"><path d="M406.9,206.11c-1.59-6.2-3.83-8.23-9.23-8.37a67.94,67.94,0,0,0-8.3,1.06c-.57,2.62-7.34,4.4-14.2,3-2,.59-7.43,2.06-9.13,2.67-4.85,1.76-7.2,6.8-7.52,22.8,0,0-.93,37.92,0,44.47,12.23,4.77,24.93,4.56,31.94,3,14.59-3.27,16.32-9.34,16.32-9.34s-.76-15.22-1.26-26.8c.73-7.37,1.83-12.91,2.23-18.79A49.44,49.44,0,0,0,406.9,206.11Z"></path></g><path d="M390.9,194.87l.1,1.46s-.71,2-4.84,2.82c-6.93,1.29-9.36-.87-9.36-.87l-.17-1.25s-.67-.27-1.8.6a60.55,60.55,0,0,0-4.79,5.62s1.32-.39,5.65,1.45a20.6,20.6,0,0,0,13.53.51,7.45,7.45,0,0,0,4.95-5.54C394.34,198.4,392.09,194.36,390.9,194.87Z" style="fill:#92E3A9"></path><path d="M390.9,194.87l.1,1.46s-.71,2-4.84,2.82c-6.93,1.29-9.36-.87-9.36-.87l-.17-1.25s-.67-.27-1.8.6a60.55,60.55,0,0,0-4.79,5.62s1.32-.39,5.65,1.45a20.6,20.6,0,0,0,13.53.51,7.45,7.45,0,0,0,4.95-5.54C394.34,198.4,392.09,194.36,390.9,194.87Z" style="opacity:0.35000000000000003"></path><path d="M364.51,205.08c-5.79,1.12-10.87,3.76-10.77,10.62a77.22,77.22,0,0,1-4.31,25.74c-1.8,5.69-16.63,22.71-20.29,23.77s-8.91-1.23-10.18.61,3.77,4.09,4,5-6.19,3.43-10.08,2.76-2.94,4.09,2.92,6.71,13.11-.39,20.06-5.59,20.86-16.3,24.45-24c4.35-9.28,6.78-18,7.31-24.7C368.54,212.27,364.51,205.08,364.51,205.08Z" style="fill:#ffa8a7"></path><path d="M365.2,204.73s-6,0-9.58,3.57c-3.06,3-3.46,7.92-4.31,17.56a77.59,77.59,0,0,1-2.76,15c-.72,2.45-10.89,16.57-10.89,16.57s4.14,6.16,8.29,9.45c0,0,9.33-7.69,14.08-14.14S368,228,368,228,370.43,214,365.2,204.73Z" style="fill:#92E3A9"></path><path d="M365.2,204.73s-6,0-9.58,3.57c-3.06,3-3.46,7.92-4.31,17.56a77.59,77.59,0,0,1-2.76,15c-.72,2.45-10.89,16.57-10.89,16.57s4.14,6.16,8.29,9.45c0,0,9.33-7.69,14.08-14.14S368,228,368,228,370.43,214,365.2,204.73Z" style="opacity:0.35000000000000003"></path><path d="M338.14,256.79a27.39,27.39,0,0,0,8.56,9.49s-3.3,2.8-5.08,3.92c0,0-4.91-1.75-7.89-8.49Z" style="fill:#92E3A9"></path><path d="M338.14,256.79a27.39,27.39,0,0,0,8.56,9.49s-3.3,2.8-5.08,3.92c0,0-4.91-1.75-7.89-8.49Z" style="opacity:0.5"></path><path d="M336.35,261.35a.74.74,0,0,0,1.33-.63.74.74,0,1,0-1.33.63Z" style="fill:#263238"></path></g></g><g id="freepik--character-2--inject-16"><g id="freepik--character--inject-16"><path d="M238.94,78.87h15.31a22.33,22.33,0,0,0,22.33-22.33h0A17.78,17.78,0,0,0,258.8,38.76h-2.08a17.78,17.78,0,0,0-17.78,17.78Z" style="fill:#263238"></path><path d="M237.18,91.14c-3.77,7.18-7.34,15.94-10.13,18.84-5.3,2.47-17.4,7.07-22.26,7.71a3.64,3.64,0,0,1-2.45-.58c-1.91-1.25-3.39-1.46-5.41-2.15-1.58-.55-2.25-1.31-2.54-1a1.78,1.78,0,0,0,.16,2.5,13,13,0,0,0,2.5,1.88,14.92,14.92,0,0,1-6.59.11c-4.21-1.11-6.2.92-3.35,5.49,1,1.64,5,4.26,13.18,3.56a72.44,72.44,0,0,0,8.65-1c7.81-1.66,16.15-4.1,21.49-5.69a13.9,13.9,0,0,0,5.18-3.6c9-10.23,13.39-19.3,17.32-25.93l-2.86-9.89C243.71,81.15,240.42,85,237.18,91.14Z" style="fill:#b16668"></path><path d="M250.07,81.34c-4.9-.36-6.76.56-9,2.75-5.35,5.26-13.51,25.28-13.64,25.44s-6.06,2.86-6.06,2.86,3.16,5.29,2.43,10.3c0,0,5.79-1.28,7.86-2.07s2.81-1.34,4.76-3.6,12.85-15.18,12.85-15.18Z" style="fill:#263238"></path><g id="freepik--character--inject-16"><path d="M239.55,103.73a42.07,42.07,0,0,1,.84,10.66c-.32,4.7-3.66,13.31-3.66,13.31s2.63,2.39,9.79,1.27c5.83-.91,3.77-18.49.42-21.9A11,11,0,0,0,239.55,103.73Z" style="fill:#37474f"></path><path d="M279.9,253.71a42.9,42.9,0,0,1,.66,7c.09,4.27.87,5.78,1,9.28.12,4-.57,5.5-2.19,7.75s-5.89,4.29-7.69.48-1.57-6.29-1-10.21.67-6.3,1-9.39c.3-2.73.66-4.8.66-4.8Z" style="fill:#263238"></path><path d="M267.79,220.17l14-.25c-.21,9.38-1.7,25-1.94,33.79,0,1.66,0,12.88-.59,16.29-.94,5.12-7,4.43-7.34,1.36s.39-16.16.37-17.51c.06-5.64-2.59-20.37-4-30.51C268.3,222.85,267.85,220.66,267.79,220.17Z" style="fill:#b16668"></path><path d="M247.13,246.41s.73.05.85.64.16,1.81.46,3a17.11,17.11,0,0,1,.5,5.56c-.25,1.31-3.24,3.27-5.28,3.61s-4.93,2.36-6.54,3.87a15.64,15.64,0,0,1-9.08,3.57c-3.41,0-5.79-1.13-6.92-3s1-2.05,4.93-4.58l3-2c6.18-4,8.44-6.2,10.19-10.24Z" style="fill:#263238"></path><path d="M239.22,244.22c.1-2.91-1.38-24.3-1.38-24.3l12.08,1.36c-2.85,17.05-3.09,22.87-2.76,25.35h0a2.52,2.52,0,0,1,.08.71c0,3.32-3.76,5.1-6.67,7.31-1.16.87-4.12,3.56-7.59,4.75-2.24.76-6.4,1.05-6.93-.31,3.55-2.71,8.38-6.26,11.21-9.35C238.6,248.26,239.12,247.12,239.22,244.22Z" style="fill:#b16668"></path><path d="M271.78,118.92a51.29,51.29,0,0,1,8.84,18.22c4,16.11-2.28,50.58-2.28,50.58.2,2.33,2.87,6.93,3.87,17.22,1.17,12.15-2.17,44.69-2.17,44.69s-3.22,2.4-7.87.16c0,0-8.51-47.8-10-59.88-1.33-10.55-4-32.46-4-32.46L252,189.85s.85,5.91,1.28,10.41c.69,7.1-6.23,42.78-6.23,42.78a9.76,9.76,0,0,1-7.84-.16s-3.06-46.08-3.71-54.64c-.66-8.81,1.63-29.35,3.32-45.7.51-4.93,2.85-18,3.72-22.26Z" style="fill:#455a64"></path><path d="M258.1,157.45l-1.45-10a24.78,24.78,0,0,1-11.75-3.79,15,15,0,0,0,9.84,5.5l.91,8.92-2.9,27.83Z" style="fill:#263238;opacity:0.6000000000000001"></path><path d="M242,108.28c.15,2.93.57,12,.57,12,12,8.1,29.23-1.36,29.23-1.36l2.49-17s-6.25-8.74-.39-18l-9.35-1.85-11.15-.92-3.31.15c-3.66,2.69-9.27,8.57-10.45,11.58S236.66,102,242,108.28Z" style="fill:#92E3A9"></path><g style="opacity:0.6000000000000001"><path d="M242,108.28c.15,2.93.57,12,.57,12,12,8.1,29.23-1.36,29.23-1.36l2.49-17s-6.25-8.74-.39-18l-9.35-1.85-11.15-.92-3.31.15c-3.66,2.69-9.27,8.57-10.45,11.58S236.66,102,242,108.28Z" style="fill:#fff"></path></g><path d="M265.14,82.23s10.59.47,12.6,1.43,5.36,6.74,2.36,15.16-5.71,18.29-5.4,20.28,7.45,12.26,7.45,12.26a19.47,19.47,0,0,1-6.58,3.16l-3.66-8,.86,8.51s-6.6,1.6-11.31,1.19C261.46,136.21,257.66,104,265.14,82.23Z" style="fill:#37474f"></path></g><path d="M271.32,38.76l-1.22,4.66a2.34,2.34,0,0,0,3-1.63A2.54,2.54,0,0,0,271.32,38.76Z" style="fill:#263238"></path><path d="M275.32,43l-4.81.17a2.33,2.33,0,0,0,2.41,2.37A2.53,2.53,0,0,0,275.32,43Z" style="fill:#263238"></path><path d="M245.92,47.21c-2,1.17-4.44,6.17-4.2,16.65.21,8.88,3.08,11.08,4.53,11.71s4.23.25,6.94-.21v5.33s-3.74,4.35-3.51,6.8,5.41,3,8.92.63a22.64,22.64,0,0,0,5.75-6V68.29s1.48,1.57,4.11-.23a4.85,4.85,0,0,0,1.24-7,3.58,3.58,0,0,0-5.44.65s-3.64-.32-9.4-3.48A18.57,18.57,0,0,1,245.92,47.21Z" style="fill:#b16668"></path><path d="M252.63,61.63a1.12,1.12,0,1,0,1.17-1.11A1.14,1.14,0,0,0,252.63,61.63Z" style="fill:#263238"></path><path d="M251.34,69.16l-2.6.82a1.35,1.35,0,0,0,1.69.94A1.43,1.43,0,0,0,251.34,69.16Z" style="fill:#9a4a4d"></path><path d="M242.73,58.2,245,56.63a1.33,1.33,0,0,0-1.88-.38A1.45,1.45,0,0,0,242.73,58.2Z" style="fill:#263238"></path><path d="M243.25,60.82a1.12,1.12,0,1,0,1.17-1.1A1.14,1.14,0,0,0,243.25,60.82Z" style="fill:#263238"></path><polygon points="249.45 60.18 249.27 66.91 245.73 65.81 249.45 60.18" style="fill:#9a4a4d"></polygon><path d="M253.19,75.36c2.86-.37,8.74-2.06,9.65-4.38a6,6,0,0,1-2.06,3c-1.75,1.51-7.59,3.2-7.59,3.2Z" style="fill:#9a4a4d"></path><path d="M297,120.61c-1.85-7.21-9.69-23-11.92-28.78-2.54-6.62-6.92-9-11.65-9-1.74,2.24-2.47,13.51,2.89,20,2.28,4.81,9.12,18.25,9.12,18.25-.17,1.3-4.95,18-7,22.44a3.47,3.47,0,0,1-1.8,1.72c-2.11.92-4.59,3.23-6.27,4.54-1.32,1-2.33,1.17-2.24,1.58a1.91,1.91,0,0,0,2.28,1.21,31,31,0,0,0,4.18-1.69,50.8,50.8,0,0,1-4.18,5.72c-2.84,3.28-2.74,6.08,2.79,6.17,4.18.06,6.39-2.29,10.1-9.46,1.06-2.06,2.24-5.17,3.52-7.82,3.23-6.71,5.27-9.5,7-13.79C296.66,124.87,297.72,123.39,297,120.61Z" style="fill:#b16668"></path><path d="M271.32,82.64c5.24,0,9.11.42,12.13,4.85s12.36,27.74,13.4,30.76,1.72,5.49-2.63,12.56a22.77,22.77,0,0,1-10.41-3.67l1.05-6.06-9.15-17.73A31.93,31.93,0,0,1,271.32,82.64Z" style="fill:#263238"></path></g></g><g id="freepik--character-1--inject-16"><g id="freepik--character--inject-16"><path d="M110.1,172.77c6,2,7.41,2.41,11.53,8.82,4,6.15,8,17.53,11.57,26.65,6.55-1.86,20.44-5.09,25-7.75s4.13-4.51,6-6.21c2.16-2,4.42-6.74,6.18-4.13,1.18,1.76-1.27,2.94-1.12,5.17s6.89-3,9.72-5c1.87-1.31,6.21,2.8,4.47,7.25-1.54,4-4,6.45-8.44,8.32-4.67,2-7.11,3-13,5.6-6.13,2.76-31.4,13.94-33.9,12.38-5.69-2.81-10.9-20.42-14.35-28S112.6,180.37,110.1,172.77Z" style="fill:#ffa8a7"></path><path d="M108.67,172c2.55,3.35,1.5,2,2.28,7.18.64,4.17,9.41,44.36,17.36,46,3.48.73,28.63-10.78,34.73-14.14a29.26,29.26,0,0,1-4.82-10.62c-7.31,2.85-19.91,5.67-24.43,7.08-2.1-5.84-4.66-11.84-7.06-17.73C122.16,178.62,119.57,170.64,108.67,172Z" style="fill:#37474f"></path><rect x="74.55" y="354.15" width="9.8" height="16.77" transform="translate(158.91 725.06) rotate(180)" style="fill:#ffa8a7"></rect><polygon points="110.97 360.49 121.66 360.86 122.19 341.48 110.08 341.08 110.97 360.49" style="fill:#ffa8a7"></polygon><path d="M75.76,240c0,8.92-.62,60.77-.62,60.77-.21,2.57-2.68,7.13-2.88,16.37-.27,13.41,1.79,45,1.79,45a12.27,12.27,0,0,0,10.4.2s7.33-44.66,9-57.92c1.46-11.58,5.64-41.88,5.64-41.88l6.3,39.36a66.08,66.08,0,0,0-.52,14.24c.44,6.13,5.08,36.64,5.08,36.64a20.51,20.51,0,0,0,12.47.11s1-47.53,1.08-53.16c.12-6.42-2.68-61.64-2.68-61.64Z" style="fill:#263238"></path><path d="M84.35,366.08v-1.4c.53,0,.85.51,1.05,1.77.15.91.28,1.59.58,2.78a32.38,32.38,0,0,0,1.71,5c1.38,3.41,2.55,4.69,5.72,8.67a38.59,38.59,0,0,1,3,3.51c.59,1.05.8,4-.21,4.66-3.69,2.46-9.31,2.53-13.29,1.37A8,8,0,0,1,77.18,386c-.14-.91-.09-1.83-.19-2.74a13.07,13.07,0,0,0-2.45-5.69,17,17,0,0,1-1.89-3.1c-.82-2-.16-4.28.37-6.28.45-1.74.94-3.64,1.53-3.48,0,.21,0,1.07,0,1.07a7.73,7.73,0,0,0,4.9,1.65C80.89,367.46,84.36,367.18,84.35,366.08Z" style="fill:#263238"></path><path d="M121.77,357.56c.56,0,1,.8,2.23,2.13a23.47,23.47,0,0,0,6.3,4.52c4,2,11.79,5.09,15.32,6.68,2.2,1,2.09,3.65-.18,5.17s-7.77,2.6-14.37,1.13c-3.6-.81-8.27-4.13-11.24-3.95s-8.5.14-10.69-1.37-1.31-4.73-.69-7.49c.67-3,1.35-7.72,2.35-7.52l0,1.13c1.29,1.94,8,2.65,10.87,1.22Z" style="fill:#263238"></path><path d="M99.09,262.54s8.33-2.72,13.87-8.07c0,0-2.51,4.7-10,9.07L104.78,298Z"></path><path d="M91.86,171.88c-2,.48-6.77,1.06-10.28,2.07-2.58.74-3.67,3.89-4.21,6.27-1.73,7.6-2,23.55-2,23.55l-.1,37.14c6.44,4.68,32.87,7.06,46.4-2.82,0,0-1.65-44.24-1.65-51.12s-3.83-15.16-14.39-15.77Z" style="fill:#455a64"></path><path d="M63.64,224.1s8.2,12.45,9.61,14.07,2.37,1.09,3.89.37a41.9,41.9,0,0,1,5.69-2c2.51-.67,3,1.81.57,3.57-1.8,1.27-3.85,1.83-3,2.88a19.1,19.1,0,0,0,6,3.92c6,2.55,6.26,4.1,5.14,6.2-1,1.82-4.57,6.8-15.39,2.16-4.46-1.92-10.65-8.69-13.61-12.2-4.28-5.07-10.14-14.93-10.14-14.93Z" style="fill:#ffa8a7"></path><path d="M81.58,174c-9.86-.85-12.4,4.22-19.4,16.64C56,201.48,48,215,47.74,220.64c-.07,1.82,7.84,14.46,13.5,20.88,4.9-.23,8.45-2.12,10.77-5-1.35-2.25-8.63-15.43-8.63-15.43l13-20.06a26.45,26.45,0,0,0,5.3-10.6C83.36,183,82.7,175.66,81.58,174Z" style="fill:#37474f"></path><path d="M94.12,142.25a12.4,12.4,0,1,0,12.4-12.39A12.4,12.4,0,0,0,94.12,142.25Z" style="fill:#263238"></path><path d="M85.09,151.06s2,9.44,2.81,11a4.28,4.28,0,0,0,2.47,2l-.14-6.64Z" style="fill:#263238"></path><path d="M87.49,136.18a5.09,5.09,0,0,0-3.68,1.6c-1.65,1.69-.78,8.1,1.28,13.28l3.78.44Z" style="fill:#263238"></path><path d="M90,151.5c-.76.46-1.84-1-2.78-2s-4-2.32-5.51.89,1.34,7.6,3.75,8.35c4.14,1.3,4.76-1.36,4.76-1.36l.31,15.41h0c2.86,3.67,9.3,8,12.77,7.37,2.76-.49,3.37-5.16.72-8.22v-4.55a25.81,25.81,0,0,0,5.59.28c3-.47,5-2.87,5.89-6.17,1.48-5.3,2-9.58.78-20-1.38-11.42-14.66-11.54-21.83-7S90,151.5,90,151.5Z" style="fill:#ffa8a7"></path><path d="M117.62,136.88a6.38,6.38,0,0,1-2.56,2.49,14.9,14.9,0,0,1-8.76,1.74c-3.15-.35-6-1.87-8.82-3.28A6.33,6.33,0,0,1,96.05,141a9.49,9.49,0,0,1-3.4,2.23c-.26,2.05-.25,4.69-.38,6.76,0,.7,0,4.33-1.69,3.29a8.2,8.2,0,0,1-1.44-1.62,25.42,25.42,0,0,0-1.91-2.11c-.49-.45-.46-1.48-.48-2.07a28.69,28.69,0,0,1,.12-3.71c.11-1.28.32-2.55.43-3.82a5.77,5.77,0,0,0-.51-2.12,7.6,7.6,0,0,1-.32-2.42c.14-2.56,2.1-4.73,4.4-5.86A20.59,20.59,0,0,1,101.48,128c3.14.26,6.38.62,9.37-.36,1.15-.38,2.24-1,3.41-1.28a4.61,4.61,0,0,1,3.54.22c2.26,1.31,2.4,5.34.17,6.71-.15.09-.33.19-.38.36a.79.79,0,0,0,.12.57A3,3,0,0,1,117.62,136.88Z" style="fill:#263238"></path><path d="M86.74,137.51l-4.59-2.46a2.54,2.54,0,0,1,3.48-1.15A2.74,2.74,0,0,1,86.74,137.51Z" style="fill:#263238"></path><path d="M104,167.41s-6.8-1.37-9.18-2.64a7.85,7.85,0,0,1-3.29-3.25,10.8,10.8,0,0,0,1.87,3.84c1.74,2.22,10.6,3.86,10.6,3.86Z" style="fill:#f28f8f"></path><path d="M103.33,149.09a1.46,1.46,0,1,1-1.46-1.52A1.48,1.48,0,0,1,103.33,149.09Z" style="fill:#263238"></path><path d="M101.87,144.14l-3,1.67a1.81,1.81,0,0,1,.7-2.4A1.69,1.69,0,0,1,101.87,144.14Z" style="fill:#263238"></path><path d="M103.45,159l3.37,1.26a1.77,1.77,0,0,1-2.29,1.12A1.88,1.88,0,0,1,103.45,159Z" style="fill:#f28f8f"></path><path d="M115.37,145.36l-2.75-2.12a1.67,1.67,0,0,1,2.39-.37A1.82,1.82,0,0,1,115.37,145.36Z" style="fill:#263238"></path><path d="M114.75,148.81a1.41,1.41,0,1,1-1.41-1.47A1.44,1.44,0,0,1,114.75,148.81Z" style="fill:#263238"></path><polygon points="107.19 147.65 107.68 156.54 112.32 154.96 107.19 147.65" style="fill:#f28f8f"></polygon><path d="M108.87,179.21c-.87,2-2.47,2.89-5.36,3.22a10.75,10.75,0,0,1-8-2.79l3.6-3.59,4.57,3.45.39-3.84Z" style="fill:#92E3A9"></path><path d="M108.87,179.21c-.87,2-2.47,2.89-5.36,3.22a10.75,10.75,0,0,1-8-2.79l3.6-3.59,4.57,3.45.39-3.84Z" style="opacity:0.2"></path><path d="M106.6,178.08a9.62,9.62,0,0,1,.47,3.86,6.56,6.56,0,0,1-1.28,3.21,3.56,3.56,0,0,1-3.12.34,8.52,8.52,0,0,1-3-6.45l4,.46Z" style="fill:#92E3A9"></path><path d="M105.79,185.15s4.69,25.87,4.88,28-2.7,9.5-4.48,9.57-5.3-6.65-5.35-8.55,1.83-28.64,1.83-28.64Z" style="fill:#92E3A9"></path><path d="M102.67,185.49a3.14,3.14,0,0,0,3.12-.34l.07.41a3.56,3.56,0,0,1-3.24.64Z" style="fill:#37474f"></path><path d="M103.67,179.5l-13.2-10.07,0-2.63s-3.09.82-3.78,6.23a23.31,23.31,0,0,0,10.3,11l2.77-5Z" style="fill:#37474f"></path><path d="M104,168.06a11.76,11.76,0,0,1,4.43,3.63c1.32,2.18,1.31,9.26,1.31,9.26l-3.16-2.87-2.93,1.42c.28-2.78.36-7.54.36-7.54Z" style="fill:#37474f"></path></g></g></svg>